<?xml version="1.0" encoding="UTF-8" standalone="no"?>
<svg
   xmlns:dc="http://purl.org/dc/elements/1.1/"
   xmlns:cc="http://creativecommons.org/ns#"
   xmlns:rdf="http://www.w3.org/1999/02/22-rdf-syntax-ns#"
   xmlns:svg="http://www.w3.org/2000/svg"
   xmlns="http://www.w3.org/2000/svg"
   xmlns:sodipodi="http://sodipodi.sourceforge.net/DTD/sodipodi-0.dtd"
   xmlns:inkscape="http://www.inkscape.org/namespaces/inkscape"
   version="1.0"
   width="806"
   height="852.21436"
   viewBox="0 0 8060 8522.1436"
   preserveAspectRatio="xMidYMid meet"
   id="svg4127"
   sodipodi:docname="marvin.svg"
   inkscape:version="0.92.3 (2405546, 2018-03-11)">
  <metadata
     id="metadata4133">
    <rdf:RDF>
      <cc:Work
         rdf:about="">
        <dc:format>image/svg+xml</dc:format>
        <dc:type
           rdf:resource="http://purl.org/dc/dcmitype/StillImage" />
        <dc:title></dc:title>
      </cc:Work>
    </rdf:RDF>
  </metadata>
  <defs
     id="defs4131">
    <clipPath
       clipPathUnits="userSpaceOnUse"
       id="clipPath4141">
      <rect
         id="rect4143"
         width="8608.75"
         height="8522.1436"
         x="-225.17856"
         y="4001.2498"
         style="stroke-width:9.90977287" />
    </clipPath>
    <clipPath
       clipPathUnits="userSpaceOnUse"
       id="clipPath4145">
      <rect
         id="rect4147"
         width="8608.75"
         height="8522.1436"
         x="-225.17856"
         y="4001.2498"
         style="stroke-width:9.90977287" />
    </clipPath>
    <clipPath
       clipPathUnits="userSpaceOnUse"
       id="clipPath4149">
      <rect
         id="rect4151"
         width="8608.75"
         height="8522.1436"
         x="-225.17856"
         y="4001.2498"
         style="stroke-width:9.90977287" />
    </clipPath>
  </defs>
  <sodipodi:namedview
     pagecolor="#ffffff"
     bordercolor="#666666"
     borderopacity="1"
     objecttolerance="10"
     gridtolerance="10"
     guidetolerance="10"
     inkscape:pageopacity="0"
     inkscape:pageshadow="2"
     inkscape:window-width="1920"
     inkscape:window-height="1010"
     id="namedview4129"
     showgrid="false"
     inkscape:zoom="0.57731959"
     inkscape:cx="-87.196429"
     inkscape:cy="504.05362"
     inkscape:window-x="0"
     inkscape:window-y="0"
     inkscape:window-maximized="1"
     inkscape:current-layer="svg4127" />
  <g
     id="layer101"
     clip-path="url(#clipPath4149)"
     style="fill:#231f20;stroke:none"
     transform="translate(-10,-4001.2498)">
    <path
       d="M 10,7325 V 1070 l 988,-2 987,-3 V 985 905 L 998,902 10,900 V 450 0 h 4030 4030 v 450 450 l -987,2 -988,3 v 80 80 l 988,3 987,2 v 6255 6255 H 4040 10 Z m 2018,5725 c 2,-67 0,-87 -12,-96 -13,-9 -16,-44 -18,-195 l -3,-184 h -45 -45 v 188 187 h -92 -93 l -2,-187 -3,-188 h -45 -45 v 235 235 l 153,3 152,3 v 38 c 0,48 5,53 55,49 l 40,-3 z m 690,0 c 2,-67 0,-87 -12,-96 -13,-9 -16,-44 -18,-195 l -3,-184 h -45 -45 l -3,188 -2,187 h -45 -45 l -2,-187 -3,-188 h -45 -45 l -3,188 -2,187 h -45 -45 l -2,-187 -3,-188 h -45 -45 v 235 235 l 203,3 202,2 v 39 c 0,48 5,53 55,49 l 40,-3 z m -1649,-14 c 8,-9 11,-81 9,-237 l -3,-224 h -45 -45 l -3,93 -3,92 h -94 -94 l -3,-92 -3,-93 h -45 -45 l -3,124 c -4,166 -9,161 160,161 h 128 v 45 45 H 847 c -90,0 -137,4 -145,12 -17,17 -15,48 5,70 14,16 34,18 183,18 130,0 170,-3 179,-14 z m 466,-226 v -235 h -185 -185 l -3,224 c -2,158 1,228 9,237 10,12 47,14 188,12 l 176,-3 z m 1610,0 v -235 h -185 -185 l -3,225 c -1,123 0,230 3,238 3,10 45,12 187,10 l 183,-3 z m 173,228 c 7,-7 12,-30 12,-52 0,-37 7,-47 82,-123 46,-46 86,-83 90,-83 5,0 8,53 8,117 0,126 10,153 55,153 43,0 46,-15 43,-251 l -3,-224 h -45 c -40,0 -45,3 -48,25 -4,24 -155,200 -173,200 -4,0 -10,-51 -11,-112 l -3,-113 h -45 -45 l -3,225 c -1,123 0,230 2,237 7,16 68,17 84,1 z m 690,-180 2,-187 68,-3 67,-3 v -45 -45 h -185 -185 v 45 45 l 68,3 67,3 v 171 c 0,193 6,212 64,206 l 31,-3 z m 727,-48 v -235 h -185 -185 v 45 45 l 138,3 137,3 v 44 44 l -92,3 -93,3 -3,33 c -6,56 11,65 105,60 l 83,-4 v 48 47 l -137,3 -138,3 -3,33 c -6,64 -11,63 190,60 l 183,-3 z m 173,228 c 7,-7 12,-30 12,-52 0,-37 7,-47 82,-123 46,-46 86,-83 90,-83 5,0 8,53 8,117 0,126 10,153 55,153 43,0 46,-15 43,-251 l -3,-224 h -45 c -43,0 -45,2 -48,30 -2,22 -25,52 -85,113 -45,45 -85,82 -89,82 -4,0 -9,-51 -10,-112 l -3,-113 h -45 -45 l -3,225 c -1,123 0,230 2,237 7,16 68,17 84,1 z m 746,-7 c 14,-16 16,-44 14,-237 l -3,-219 h -45 -45 l -3,188 -2,187 h -95 -94 l -3,-47 -3,-48 h -45 -45 l -3,83 c -2,53 1,89 9,98 9,11 47,14 179,14 150,0 169,-2 184,-19 z m 465,5 c 8,-9 11,-81 9,-237 l -3,-224 h -190 -190 l -3,219 c -2,193 0,221 14,237 15,17 34,19 184,19 130,0 170,-3 179,-14 z m 466,-226 v -235 h -45 -45 l -3,93 -3,92 h -89 -89 l -3,-92 -3,-93 h -45 -45 l -3,129 c -2,86 1,133 9,142 9,11 43,14 140,14 h 129 v 45 44 l -137,3 -138,3 -3,33 c -6,61 1,63 197,60 l 176,-3 z m 299,221 c 14,-16 16,-44 14,-237 l -3,-219 h -45 -45 l -3,224 c -2,156 1,228 9,237 16,20 53,17 73,-5 z m 328,2 c 16,-14 18,-34 18,-190 v -173 h 59 c 68,0 84,-13 79,-62 l -3,-33 h -190 -190 v 45 45 l 73,3 72,3 v 177 c 0,125 4,182 12,190 17,17 48,15 70,-5 z m -2166,-582 c 34,-12 80,-38 103,-58 l 42,-36 -7,-138 c -5,-94 -3,-139 4,-139 5,0 13,7 16,16 17,44 14,-6 -9,-145 -14,-83 -34,-169 -44,-190 -34,-67 -98,-138 -143,-159 -85,-42 -679,-72 -708,-37 -11,14 -40,21 -40,11 0,-3 14,-27 32,-53 17,-26 32,-49 33,-50 0,-1 167,9 370,23 405,27 390,24 423,94 16,34 17,27 23,-220 5,-221 10,-282 38,-460 21,-127 33,-241 33,-300 0,-98 15,-93 17,6 1,61 1,61 171,175 69,47 167,115 218,153 99,72 182,116 219,116 32,0 68,-54 88,-128 9,-35 32,-150 53,-255 35,-184 37,-201 36,-397 0,-269 -10,-358 -101,-982 -4,-30 -2,-38 10,-38 27,0 28,-15 6,-87 -38,-124 -120,-257 -232,-381 -78,-85 -121,-144 -185,-257 -78,-139 -129,-254 -152,-346 -26,-108 -32,-120 -75,-168 -38,-42 -147,-95 -221,-107 l -40,-6 -46,69 c -63,95 -96,162 -114,232 -16,65 -10,126 42,411 34,187 48,235 94,334 22,47 40,90 40,96 0,17 17,12 66,-20 65,-41 187,-90 248,-100 28,-4 76,-4 107,0 62,9 209,69 209,85 0,6 -109,39 -241,74 -201,54 -242,68 -249,85 -7,16 -61,599 -60,639 0,5 -4,7 -9,5 -11,-4 -201,-230 -201,-239 0,-4 26,-5 58,-2 50,5 59,3 77,-17 29,-32 25,-111 -13,-250 -17,-63 -43,-162 -57,-220 -22,-96 -28,-108 -62,-137 -105,-89 -170,-182 -278,-397 l -70,-139 1,-116 c 0,-64 5,-134 12,-156 6,-22 8,-43 4,-47 -4,-4 -60,3 -125,16 -82,17 -138,35 -189,61 -148,77 -294,111 -445,103 -64,-3 -99,-10 -130,-26 -69,-36 -139,-116 -186,-213 -23,-48 -46,-88 -52,-88 -5,0 -28,9 -50,22 -38,21 -42,28 -78,137 -55,168 -164,543 -182,630 -22,103 -41,239 -59,410 -27,267 -28,278 -17,285 6,3 11,2 11,-4 0,-15 104,-136 235,-276 l 112,-120 174,-23 c 96,-12 207,-22 247,-22 155,0 410,41 499,80 27,12 106,81 230,203 103,102 186,187 183,190 -3,3 -368,9 -812,14 -694,7 -810,10 -822,23 -8,8 -42,66 -76,128 -34,62 -64,111 -66,109 -2,-2 2,-56 9,-119 16,-138 6,-378 -17,-413 -12,-18 -47,-30 -180,-63 -91,-22 -182,-48 -203,-58 l -38,-19 -71,60 -72,60 -81,250 c -101,312 -185,608 -201,706 -8,51 -11,181 -9,414 l 4,340 27,46 c 15,25 34,51 42,59 14,11 16,9 16,-9 0,-36 26,-75 86,-130 89,-82 141,-114 194,-119 47,-4 48,-3 118,63 48,45 73,63 77,54 72,-205 132,-355 156,-389 10,-15 28,-74 41,-133 13,-59 25,-107 28,-107 3,0 38,50 78,110 103,158 243,349 303,414 147,161 397,301 652,367 133,34 322,15 300,-30 -4,-9 -7,-39 -7,-67 1,-63 6,-70 285,-380 225,-250 291,-329 319,-385 28,-54 247,-309 266,-309 2,0 4,35 4,78 0,42 7,109 16,147 9,39 18,89 21,111 l 5,42 -192,213 c -291,323 -474,513 -580,601 -135,113 -136,114 -143,233 -3,55 -14,121 -23,148 -15,44 -15,49 0,72 14,22 15,28 2,48 -9,14 -16,67 -20,152 l -7,130 33,-38 33,-38 185,-11 c 196,-11 455,-5 530,13 41,9 100,51 100,70 0,4 -183,7 -406,7 l -407,-1 -23,44 c -63,119 -96,285 -74,369 29,108 169,140 595,136 210,-2 235,-4 291,-25 z m -1611,-61 c 123,-21 247,-58 345,-102 84,-38 171,-72 237,-93 29,-10 57,-23 63,-30 12,-15 -4,-294 -21,-358 -6,-21 -26,-55 -45,-76 -41,-46 -42,-54 -9,-69 24,-11 25,-16 25,-89 0,-43 7,-129 14,-192 l 15,-114 -26,-34 c -14,-18 -28,-33 -30,-33 -3,0 -34,21 -70,46 -58,41 -68,45 -101,39 -68,-13 -257,-112 -416,-218 -112,-75 -155,-114 -210,-191 -51,-72 -179,-305 -232,-423 -20,-46 -40,-83 -44,-83 -4,0 -15,37 -25,82 -13,60 -16,103 -11,158 7,92 93,443 142,584 46,130 53,161 54,216 l 1,45 24,-30 24,-29 228,22 c 408,40 396,38 448,87 42,41 56,65 36,65 -5,0 -14,-7 -22,-16 -34,-41 -55,-43 -375,-44 -170,0 -314,-1 -320,0 -16,0 -109,137 -122,180 -15,46 -34,204 -27,222 3,7 -23,74 -59,148 -110,232 -120,288 -54,322 77,40 348,44 563,8 z M 3074,9088 c 6,-65 30,-461 41,-673 4,-79 1,-172 -10,-270 -8,-82 -15,-153 -15,-157 0,-28 -108,27 -168,85 -61,59 -78,97 -107,244 -54,276 -56,283 -110,360 -27,40 -90,130 -139,200 -49,71 -95,144 -104,163 -16,39 -32,90 -28,90 2,0 19,-26 39,-57 55,-90 68,-98 188,-118 152,-25 160,-23 287,95 59,55 110,100 114,100 3,0 9,-28 12,-62 z M 4212,7945 c 129,-17 279,-52 388,-90 570,-200 1012,-646 1204,-1215 25,-74 48,-154 52,-177 6,-42 6,-42 -42,-73 -48,-30 -132,-61 -163,-59 -9,0 -65,65 -125,145 -79,105 -114,144 -127,142 -10,-2 -79,-86 -157,-193 l -138,-190 -245,-8 c -249,-7 -517,4 -909,39 -169,15 -438,57 -468,73 -9,5 -91,104 -182,220 -91,115 -169,210 -175,211 -5,0 -75,-65 -155,-144 l -145,-145 -107,48 c -59,27 -144,69 -189,95 -78,44 -119,57 -119,37 0,-16 47,-44 188,-115 195,-97 300,-130 612,-191 507,-100 567,-108 1045,-141 196,-14 320,-15 680,-10 242,4 465,11 495,15 56,9 337,103 399,134 18,9 37,15 41,12 30,-18 44,-402 21,-565 -91,-654 -491,-1205 -1083,-1495 -271,-132 -625,-207 -903,-191 -629,38 -1170,344 -1516,860 -206,306 -313,632 -326,996 -26,711 349,1377 979,1741 196,112 462,202 698,234 131,18 337,18 472,0 z M 3230,6541 c 44,-58 80,-108 80,-112 0,-14 -27,-16 -85,-8 -63,10 -212,46 -232,58 -12,7 134,174 148,169 4,-2 44,-50 89,-107 z m 2239,-116 c 47,-62 68,-97 59,-100 -110,-36 -308,-61 -308,-37 0,6 5,14 10,17 6,4 22,23 35,43 14,21 36,53 50,72 14,19 35,50 46,68 12,17 24,32 28,32 4,0 40,-43 80,-95 z M 4059,3423 c 19,-54 68,-201 111,-328 l 78,-230 371,-5 372,-5 -295,-205 c -183,-127 -296,-211 -296,-221 0,-9 49,-162 110,-340 60,-178 108,-324 106,-326 -1,-1 -132,90 -291,202 -159,113 -295,205 -303,205 -8,0 -141,-89 -296,-198 -154,-109 -286,-202 -293,-205 -6,-4 38,137 98,314 60,177 109,331 109,343 0,18 -60,65 -292,227 l -293,204 370,3 371,2 98,298 c 123,374 119,362 126,362 3,0 21,-44 39,-97 z m -1881,-1855 3,-68 h 124 125 v 59 c 0,75 9,83 97,79 l 68,-3 V 1270 905 h -290 -290 l -3,355 c -1,195 0,361 3,368 3,9 26,12 82,10 l 78,-3 z m 1111,58 c 7,-9 11,-41 9,-83 l -3,-68 -212,-3 -213,-2 v -200 -200 h 203 c 145,0 206,-3 215,-12 17,-17 16,-133 -2,-147 -9,-8 -96,-11 -297,-9 l -284,3 -3,355 c -1,195 0,361 3,367 7,20 568,18 584,-1 z m 696,-71 v -80 l -212,-3 -213,-2 v -200 -200 l 213,-2 212,-3 v -80 -80 l -284,-3 c -201,-2 -288,1 -297,9 -19,16 -21,698 -2,717 9,9 84,12 298,10 l 285,-3 z m 690,-285 V 905 h -290 -290 v 80 80 l 208,3 207,2 v 60 59 l -137,3 -138,3 -3,68 c -2,42 2,74 9,83 9,11 41,14 135,14 h 124 v 55 55 l -202,2 -203,3 -3,69 c -2,38 -1,75 2,83 5,11 58,13 293,11 l 288,-3 z m 273,228 3,-138 h 198 c 156,0 201,-3 210,-14 8,-9 11,-78 9,-227 l -3,-214 h -290 -290 l -3,355 c -1,195 0,361 3,368 3,9 26,12 82,10 l 78,-3 z m 901,128 c 9,-11 11,-88 9,-285 l -3,-271 h 96 c 60,0 99,-4 107,-12 17,-17 16,-133 -2,-147 -9,-8 -96,-11 -297,-9 l -284,3 v 80 80 l 105,3 105,3 -3,270 c -2,197 0,274 9,285 8,10 33,14 79,14 46,0 71,-4 79,-14 z"
       id="path4052"
       inkscape:connector-curvature="0" />
    <path
       d="m 1260,12810 v -140 h 90 90 v 140 140 h -90 -90 z"
       id="path4054"
       inkscape:connector-curvature="0" />
    <path
       d="m 2870,12810 v -140 h 90 90 v 140 140 h -90 -90 z"
       id="path4056"
       inkscape:connector-curvature="0" />
    <path
       d="m 5840,12810 v -140 h 95 95 v 140 140 h -95 -95 z"
       id="path4058"
       inkscape:connector-curvature="0" />
    <path
       d="m 3162,11868 c -7,-7 -12,-16 -12,-20 0,-10 280,-11 450,-1 106,5 120,8 104,20 -25,18 -524,19 -542,1 z"
       id="path4060"
       inkscape:connector-curvature="0" />
    <path
       d="m 3918,3108 -94,-283 -308,-3 c -183,-1 -306,-6 -304,-12 2,-5 104,-79 228,-165 124,-86 232,-164 242,-173 15,-16 10,-35 -73,-281 -49,-146 -89,-271 -89,-279 0,-9 6,-12 16,-8 9,3 121,80 250,171 l 234,165 240,-170 c 132,-94 245,-170 250,-170 6,0 10,6 10,14 0,8 -41,134 -91,280 -51,147 -90,268 -88,270 2,2 112,79 244,170 132,92 241,171 243,176 2,6 -121,11 -303,12 l -307,3 -97,282 c -53,156 -99,283 -103,283 -3,0 -49,-127 -100,-282 z"
       id="path4062"
       inkscape:connector-curvature="0" />
    <path
       d="m 2180,1200 v -130 h 128 127 v 130 130 h -127 -128 z"
       id="path4064"
       inkscape:connector-curvature="0" />
    <path
       d="m 4950,1130 v -60 h 125 125 v 60 60 h -125 -125 z"
       id="path4066"
       inkscape:connector-curvature="0" />
  </g>
  <g
     id="layer102"
     clip-path="url(#clipPath4145)"
     style="fill:#0fb04c;stroke:none"
     transform="translate(-10,-4001.2498)">
    <path
       d="m 3045,6574 c -44,-48 -74,-89 -69,-94 25,-23 299,-78 330,-66 9,3 14,13 12,21 -6,27 -163,224 -179,225 -9,0 -51,-39 -94,-86 z"
       id="path4069"
       inkscape:connector-curvature="0" />
    <path
       d="m 5370,6521 c 0,-4 -12,-24 -27,-44 -16,-20 -39,-52 -53,-72 -14,-20 -37,-52 -52,-72 -16,-20 -28,-40 -28,-46 0,-15 196,-2 273,19 37,10 67,22 67,26 0,19 -147,197 -162,198 -10,0 -18,-4 -18,-9 z"
       id="path4071"
       inkscape:connector-curvature="0" />
  </g>
  <g
     id="layer103"
     clip-path="url(#clipPath4141)"
     style="fill:#fefefe;stroke:none"
     transform="translate(-10,-4001.2498)">
    <path
       d="M 5,6790 C 5,3053 7,198 10,445 l 5,450 988,3 987,2 v 85 85 l -987,2 -988,3 -5,6255 -5,6255 z"
       id="path4074"
       inkscape:connector-curvature="0" />
    <path
       d="m 8068,7328 -3,-6253 -987,-3 -988,-2 v -85 -85 l 988,-2 987,-3 5,-450 c 3,-247 6,2607 8,6343 1,3735 0,6792 -3,6792 -3,0 -6,-2814 -7,-6252 z"
       id="path4076"
       inkscape:connector-curvature="0" />
    <path
       d="m 1928,13098 -3,-43 -152,-3 -153,-3 v -239 -240 h 50 50 l 2,188 3,187 88,3 87,3 v -191 -190 h 50 50 v 185 c 0,156 2,187 15,191 12,5 15,26 15,100 v 94 h -49 -50 z"
       id="path4078"
       inkscape:connector-curvature="0" />
    <path
       d="m 2618,13098 -3,-43 -202,-3 -203,-2 v -240 -240 h 50 50 l 2,188 3,187 h 40 40 l 3,-187 2,-188 h 50 50 l 2,188 3,187 h 40 40 l 3,-187 2,-188 h 50 50 v 185 c 0,156 2,187 15,191 12,5 15,26 15,100 v 94 h -49 -50 z"
       id="path4080"
       inkscape:connector-curvature="0" />
    <path
       d="m 697,13043 c -4,-3 -7,-26 -7,-49 v -43 l 143,-3 142,-3 v -40 -40 l -140,-5 -140,-5 -3,-142 -3,-143 h 50 50 l 3,93 3,92 h 90 90 l 3,-92 3,-93 h 49 50 v 240 240 H 892 c -104,0 -192,-3 -195,-7 z"
       id="path4082"
       inkscape:connector-curvature="0" />
    <path
       d="m 1160,12810 v -240 h 190 190 v 240 240 h -190 -190 z m 275,0 v -135 h -85 -85 l -3,124 c -1,69 0,131 3,138 3,10 25,13 87,11 l 83,-3 z"
       id="path4084"
       inkscape:connector-curvature="0" />
    <path
       d="m 2770,12810 v -240 h 190 190 v 240 240 h -190 -190 z m 275,0 v -135 h -85 -85 l -3,124 c -1,69 0,131 3,138 3,10 25,13 87,11 l 83,-3 z"
       id="path4086"
       inkscape:connector-curvature="0" />
    <path
       d="m 3230,12810 v -240 h 50 50 v 113 l 1,112 89,-95 c 49,-52 90,-103 90,-112 0,-15 9,-18 50,-18 h 50 v 241 240 l -47,-3 -48,-3 -3,-129 -3,-130 -89,89 c -85,85 -90,92 -90,132 v 43 h -50 -50 z"
       id="path4088"
       inkscape:connector-curvature="0" />
    <path
       d="m 3915,13038 c -3,-7 -6,-92 -7,-188 l -3,-175 -67,-3 -68,-3 v -49 -50 h 190 190 v 50 49 l -67,3 -68,3 -3,188 -2,187 h -46 c -26,0 -46,-5 -49,-12 z"
       id="path4090"
       inkscape:connector-curvature="0" />
    <path
       d="m 4360,13000 v -49 l 138,-3 137,-3 3,-42 3,-43 h -95 -96 v -50 -49 l 93,-3 92,-3 v -40 -40 l -137,-3 -138,-3 v -49 -50 h 190 190 v 240 240 h -190 -190 z"
       id="path4092"
       inkscape:connector-curvature="0" />
    <path
       d="m 4820,12810 v -240 h 50 50 v 112 113 l 90,-90 c 61,-60 90,-97 90,-112 0,-21 5,-23 50,-23 h 50 v 241 240 l -47,-3 -48,-3 -3,-129 -3,-130 -89,89 c -85,85 -90,92 -90,132 v 43 h -50 -50 z"
       id="path4094"
       inkscape:connector-curvature="0" />
    <path
       d="m 5280,12950 v -100 h 49 50 l 3,48 3,47 h 90 90 l 3,-187 2,-188 h 50 50 l -2,238 -3,237 -192,3 -193,2 z"
       id="path4096"
       inkscape:connector-curvature="0" />
    <path
       d="m 5747,13043 c -4,-3 -7,-111 -7,-240 v -233 h 195 195 v 240 240 h -188 c -104,0 -192,-3 -195,-7 z m 278,-233 v -135 h -90 -90 l -3,124 c -1,69 0,131 3,138 3,11 26,13 92,11 l 88,-3 z"
       id="path4098"
       inkscape:connector-curvature="0" />
    <path
       d="m 6210,13000 v -49 l 138,-3 137,-3 v -40 -40 l -137,-3 -138,-3 v -144 -145 h 50 49 l 3,93 3,92 h 85 85 l 3,-92 3,-93 h 49 50 v 240 240 h -190 -190 z"
       id="path4100"
       inkscape:connector-curvature="0" />
    <path
       d="m 6800,12811 v -241 h 50 50 l -2,238 -3,237 -47,3 -48,3 z"
       id="path4102"
       inkscape:connector-curvature="0" />
    <path
       d="m 7128,12863 -3,-188 -72,-3 -73,-3 v -49 -50 h 195 195 v 50 49 l -67,3 -68,3 -5,185 -5,185 -47,3 -48,3 z"
       id="path4104"
       inkscape:connector-curvature="0" />
    <path
       d="m 4415,12469 c -111,-12 -203,-34 -227,-56 -29,-26 -39,-85 -32,-185 7,-110 14,-137 62,-241 32,-69 38,-77 56,-71 12,4 193,8 404,9 l 383,2 -32,-33 c -22,-23 -47,-36 -81,-43 -83,-18 -295,-24 -488,-13 l -185,11 -43,48 -44,48 7,-150 c 4,-82 11,-158 16,-167 6,-10 5,-19 -1,-23 -15,-9 -12,-56 6,-106 8,-24 18,-89 21,-145 4,-70 11,-106 22,-120 9,-11 57,-54 108,-97 104,-88 312,-304 593,-615 173,-193 191,-216 185,-240 -24,-94 -35,-167 -35,-240 v -82 l -65,68 c -97,103 -183,208 -205,251 -28,56 -94,135 -319,385 -298,331 -309,347 -274,407 17,29 17,31 0,44 -10,7 -46,18 -81,24 -134,23 -368,-35 -574,-144 -102,-54 -256,-169 -312,-233 -55,-61 -198,-258 -297,-408 -54,-82 -79,-112 -81,-99 -10,74 -47,214 -62,235 -18,26 -93,209 -132,323 -12,37 -27,67 -32,67 -5,0 -42,-32 -83,-71 -67,-63 -79,-70 -105,-65 -38,8 -104,53 -184,129 -68,63 -94,101 -94,138 0,18 -2,20 -16,9 -8,-8 -27,-34 -42,-59 l -27,-46 -3,-360 c -3,-249 0,-383 8,-435 16,-96 117,-448 215,-750 133,-407 108,-355 310,-640 45,-63 87,-124 92,-135 12,-22 32,-110 68,-298 28,-141 46,-186 97,-234 32,-31 141,-93 164,-93 13,0 19,33 35,206 11,121 4,361 -21,699 -12,160 -12,182 -2,170 5,-6 15,-55 21,-110 24,-194 88,-441 208,-812 l 46,-142 49,-21 c 28,-12 51,-20 53,-18 1,2 21,40 45,86 48,94 134,188 202,223 113,58 341,25 537,-76 54,-28 105,-44 201,-63 72,-14 133,-23 136,-19 4,4 1,35 -7,69 -8,35 -14,102 -14,149 v 86 l 70,139 c 109,216 194,337 289,409 22,16 31,39 51,125 14,58 39,157 56,220 36,130 46,222 30,263 -10,25 -14,27 -71,27 -33,0 -60,2 -60,5 0,7 183,225 186,222 1,-1 14,-146 29,-322 16,-176 31,-324 35,-328 4,-4 111,-36 239,-70 128,-35 232,-67 232,-71 0,-5 -35,-25 -78,-44 -112,-52 -190,-55 -299,-13 -44,17 -110,49 -147,71 -36,22 -70,40 -74,40 -16,0 -94,-183 -113,-265 -23,-97 -75,-395 -85,-486 -12,-117 44,-264 160,-417 6,-8 142,31 198,56 86,39 113,76 144,198 26,104 75,217 155,359 64,113 107,172 185,257 113,124 194,257 232,382 27,89 27,116 0,116 -17,0 -20,4 -15,23 3,13 21,134 40,268 79,551 84,810 23,1136 -63,337 -74,363 -141,363 -55,0 -125,-34 -238,-116 -51,-38 -155,-110 -230,-161 -76,-52 -138,-99 -138,-105 0,-6 -3,-8 -7,-4 -4,3 -22,107 -41,229 -29,191 -35,258 -41,482 -6,252 -7,259 -23,225 -9,-19 -29,-47 -45,-62 l -28,-27 -350,-24 c -193,-13 -354,-21 -360,-16 -5,4 -18,21 -28,38 l -18,31 h 165 c 237,0 519,25 573,51 42,20 93,79 127,146 18,37 73,359 63,370 -4,3 -14,-2 -22,-13 -14,-17 -15,-5 -9,127 l 7,146 -35,27 c -19,14 -61,36 -94,48 -54,20 -79,22 -309,24 -137,1 -290,-2 -340,-7 z m 806,-1892 c -8,-8 -11,-5 -11,9 0,27 14,41 18,19 2,-9 -1,-22 -7,-28 z m -2170,-971 62,-113 66,-7 c 36,-3 244,-7 461,-7 217,-1 556,-4 754,-8 l 358,-6 -192,-188 c -126,-125 -206,-195 -233,-207 -83,-36 -343,-80 -479,-80 -29,0 -131,10 -227,22 l -174,23 -123,130 c -67,71 -150,164 -185,205 -34,41 -66,77 -72,79 -10,3 -6,-83 9,-230 6,-53 5,-57 -17,-62 -13,-4 -70,-49 -125,-102 -56,-52 -115,-99 -130,-105 -21,-8 -53,-7 -132,7 -103,17 -104,18 -146,64 -41,47 -82,109 -71,109 3,0 26,-19 51,-42 38,-35 48,-40 62,-30 37,27 94,47 249,84 122,30 164,44 168,57 15,49 23,312 11,414 -6,59 -11,107 -9,107 1,0 30,-51 64,-114 z m 39,-487 c 0,-11 -4,-17 -10,-14 -5,3 -10,15 -10,26 0,11 5,17 10,14 6,-3 10,-15 10,-26 z"
       id="path4106"
       inkscape:connector-curvature="0" />
    <path
       d="m 2973,12410 c -119,-12 -137,-23 -141,-84 -4,-61 14,-116 87,-270 54,-114 58,-128 69,-237 7,-64 17,-131 24,-150 12,-37 81,-143 100,-155 17,-11 669,-4 693,7 11,6 2,-5 -19,-24 -45,-39 -40,-39 -426,-78 l -205,-21 -26,31 c -14,17 -29,31 -32,31 -4,0 -7,-17 -7,-37 -1,-47 -9,-82 -54,-209 -58,-167 -136,-496 -143,-605 -6,-98 17,-249 38,-249 5,0 31,46 57,103 112,239 224,418 309,498 105,99 456,307 540,321 13,2 45,-14 87,-44 36,-27 72,-48 79,-48 7,0 24,14 36,31 l 23,31 -16,137 c -9,75 -16,167 -16,204 0,61 -2,70 -20,74 -26,7 -25,9 10,49 39,44 47,81 60,254 15,223 19,205 -42,225 -67,21 -154,55 -238,93 -97,44 -221,81 -345,102 -131,22 -368,32 -482,20 z m 711,-543 c 16,-12 2,-15 -104,-20 -68,-4 -191,-7 -273,-7 -149,0 -150,0 -132,20 17,19 31,20 255,20 181,0 240,-3 254,-13 z"
       id="path4108"
       inkscape:connector-curvature="0" />
    <path
       d="M 3720,7945 C 2919,7835 2279,7250 2106,6467 c -38,-172 -49,-300 -43,-497 7,-229 35,-376 113,-600 64,-185 191,-408 324,-570 162,-197 398,-381 635,-495 1024,-492 2250,-10 2645,1040 45,121 94,311 111,435 25,171 9,600 -22,600 -4,0 -27,-10 -49,-21 -64,-34 -349,-130 -410,-140 -30,-4 -244,-11 -475,-15 -342,-5 -465,-3 -660,10 -478,33 -538,41 -1045,141 -315,62 -417,94 -616,194 -149,75 -197,104 -189,113 3,3 45,-16 93,-43 100,-56 284,-139 310,-139 9,0 80,63 157,140 l 140,140 165,-210 c 140,-179 170,-212 200,-220 75,-20 283,-50 445,-65 414,-36 632,-46 909,-39 l 273,7 138,189 c 75,103 141,188 146,188 4,0 58,-65 119,-145 61,-80 115,-145 118,-145 49,0 232,77 232,98 0,26 -45,186 -79,282 -167,466 -516,855 -956,1065 -153,73 -240,104 -390,141 -217,53 -509,68 -725,39 z"
       id="path4110"
       inkscape:connector-curvature="0" />
    <path
       d="m 4002,3503 c -6,-16 -54,-161 -107,-323 -54,-162 -102,-301 -107,-307 -8,-10 -101,-13 -382,-15 l -371,-3 297,-207 c 163,-115 299,-212 302,-217 3,-5 -46,-161 -109,-347 -63,-185 -113,-339 -111,-341 2,-2 135,89 295,202 160,113 297,208 305,211 8,3 136,-81 304,-200 160,-113 296,-206 302,-206 7,0 10,6 7,13 -2,6 -54,159 -115,339 l -111,328 103,72 c 57,40 191,134 299,208 108,74 196,138 197,142 0,4 -168,9 -372,10 l -373,3 -22,65 c -12,36 -52,153 -88,260 -94,279 -117,340 -125,340 -4,0 -12,-12 -18,-27 z m 117,-406 c 50,-148 91,-271 91,-273 0,-2 138,-5 308,-6 l 307,-3 -225,-157 c -124,-86 -236,-164 -248,-175 l -23,-18 95,-277 c 53,-153 92,-278 88,-278 -4,0 -115,77 -247,170 -132,94 -244,170 -249,170 -4,0 -25,-13 -45,-28 -54,-43 -438,-312 -445,-312 -2,0 35,120 85,266 49,147 89,274 89,284 0,11 -84,76 -242,186 l -243,169 306,3 307,2 30,88 c 16,48 58,174 93,279 35,106 66,189 70,185 3,-4 47,-128 98,-275 z"
       id="path4112"
       inkscape:connector-curvature="0" />
    <path
       d="M 2010,1270 V 900 h 295 295 v 370 370 h -85 -84 l -3,-67 -3,-68 h -120 -120 l -3,68 -3,67 h -84 -85 z m 420,-70 v -131 l -122,3 -123,3 -3,114 c -1,63 0,121 2,128 4,10 36,13 126,13 h 120 z"
       id="path4114"
       inkscape:connector-curvature="0" />
    <path
       d="M 2700,1270 V 900 h 300 300 v 85 85 l -212,2 -213,3 v 195 195 l 213,3 212,2 v 85 85 h -300 -300 z"
       id="path4116"
       inkscape:connector-curvature="0" />
    <path
       d="M 3390,1270 V 900 h 300 300 v 85 85 l -212,2 -213,3 v 195 195 l 213,3 212,2 v 85 85 h -300 -300 z"
       id="path4118"
       inkscape:connector-curvature="0" />
    <path
       d="m 4090,1555 v -85 l 203,-2 202,-3 v -50 -50 l -132,-3 -133,-3 v -84 -84 l 138,-3 137,-3 v -55 -55 l -207,-3 -208,-2 v -85 -85 h 295 295 v 370 370 h -295 -295 z"
       id="path4120"
       inkscape:connector-curvature="0" />
    <path
       d="M 4780,1270 V 900 h 295 295 v 230 230 l -207,2 -208,3 -3,138 -3,137 h -84 -85 z m 415,-140 v -55 h -120 -120 l -3,44 c -5,73 -7,72 125,69 l 118,-3 z"
       id="path4122"
       inkscape:connector-curvature="0" />
    <path
       d="m 5678,1358 -3,-283 -102,-3 -103,-3 v -84 -85 h 300 300 v 85 85 h -105 -105 v 285 285 h -90 -90 z"
       id="path4124"
       inkscape:connector-curvature="0" />
  </g>
</svg>
